<svg width="1600" height="900" viewBox="0 0 1600 900" fill="none" xmlns="http://www.w3.org/2000/svg">
  <defs>
    <linearGradient id="bg" x1="0" y1="0" x2="1600" y2="900" gradientUnits="userSpaceOnUse">
      <stop stop-color="#081018"/>
      <stop offset="1" stop-color="#122B21"/>
    </linearGradient>
    <linearGradient id="split" x1="0" y1="0" x2="1600" y2="900" gradientUnits="userSpaceOnUse">
      <stop stop-color="#1D8CFF"/>
      <stop offset="1" stop-color="#2AD67F"/>
    </linearGradient>
    <filter id="glow" x="-20%" y="-20%" width="140%" height="140%">
      <feGaussianBlur stdDeviation="18" result="blur"/>
      <feMerge>
        <feMergeNode in="blur"/>
        <feMergeNode in="SourceGraphic"/>
      </feMerge>
    </filter>
  </defs>

  <rect width="1600" height="900" fill="url(#bg)"/>
  <rect x="0" y="0" width="800" height="900" fill="#1D8CFF" opacity="0.08"/>
  <rect x="800" y="0" width="800" height="900" fill="#2AD67F" opacity="0.08"/>
  <path d="M180 250H1420" stroke="url(#split)" stroke-width="3" stroke-dasharray="14 18" opacity="0.45"/>
  <path d="M180 650H1420" stroke="url(#split)" stroke-width="3" stroke-dasharray="14 18" opacity="0.45"/>

  <g filter="url(#glow)">
    <rect x="260" y="270" width="300" height="230" rx="30" fill="#122E4D" stroke="#1D8CFF" stroke-width="3"/>
    <rect x="1040" y="270" width="300" height="230" rx="30" fill="#123B2B" stroke="#2AD67F" stroke-width="3"/>

    <rect x="650" y="170" width="300" height="230" rx="30" fill="#17263B" stroke="#FFFFFF" stroke-opacity="0.22" stroke-width="2"/>
    <rect x="650" y="500" width="300" height="230" rx="30" fill="#17263B" stroke="#FFFFFF" stroke-opacity="0.22" stroke-width="2"/>

    <path d="M560 385H650M950 385H1040M800 400V500" stroke="url(#split)" stroke-width="8" stroke-linecap="round"/>
    <path d="M560 385L590 370L590 400Z" fill="#1D8CFF"/>
    <path d="M1040 385L1010 370L1010 400Z" fill="#2AD67F"/>
    <path d="M800 400L785 430L815 430Z" fill="#7DF7B8"/>

    <path d="M740 240H860M740 286H860M740 332H860" stroke="#FFFFFF" stroke-opacity="0.9" stroke-width="6" stroke-linecap="round"/>
    <path d="M370 350H450M370 392H490M370 434H430" stroke="#FFFFFF" stroke-opacity="0.9" stroke-width="6" stroke-linecap="round"/>
    <path d="M1150 350H1230M1150 392H1310M1150 434H1260" stroke="#FFFFFF" stroke-opacity="0.9" stroke-width="6" stroke-linecap="round"/>
    <path d="M740 570H860M740 616H860M740 662H860" stroke="#FFFFFF" stroke-opacity="0.9" stroke-width="6" stroke-linecap="round"/>
  </g>

  <circle cx="800" cy="385" r="20" fill="#FFFFFF"/>
  <circle cx="800" cy="550" r="20" fill="#FFFFFF"/>

  <text x="800" y="805" text-anchor="middle" fill="#EAF7FF" font-family="Inter, Arial, sans-serif" font-size="30" font-weight="700">Blue-Green Deployments</text>
  <text x="800" y="842" text-anchor="middle" fill="#B7C4D6" font-family="Inter, Arial, sans-serif" font-size="18" font-weight="500">CI/CD pipeline reliability and zero-downtime releases</text>

  <g opacity="0.22">
    <circle cx="220" cy="180" r="85" fill="#1D8CFF"/>
    <circle cx="1380" cy="720" r="110" fill="#2AD67F"/>
  </g>
</svg>
