<svg width="1600" height="900" viewBox="0 0 1600 900" fill="none" xmlns="http://www.w3.org/2000/svg">
  <defs>
    <linearGradient id="bg" x1="0" y1="0" x2="1600" y2="900" gradientUnits="userSpaceOnUse">
      <stop stop-color="#08111F"/>
      <stop offset="1" stop-color="#0B2A45"/>
    </linearGradient>
    <linearGradient id="accent" x1="260" y1="170" x2="1340" y2="730" gradientUnits="userSpaceOnUse">
      <stop stop-color="#35C2FF"/>
      <stop offset="0.5" stop-color="#76F2C4"/>
      <stop offset="1" stop-color="#8A7CFF"/>
    </linearGradient>
    <filter id="glow" x="-20%" y="-20%" width="140%" height="140%">
      <feGaussianBlur stdDeviation="16" result="blur"/>
      <feMerge>
        <feMergeNode in="blur"/>
        <feMergeNode in="SourceGraphic"/>
      </feMerge>
    </filter>
  </defs>

  <rect width="1600" height="900" fill="url(#bg)"/>
  <circle cx="330" cy="210" r="170" fill="#35C2FF" opacity="0.08"/>
  <circle cx="1280" cy="690" r="220" fill="#8A7CFF" opacity="0.08"/>
  <path d="M110 640C280 520 470 500 650 560C830 620 970 640 1220 520C1360 452 1470 420 1540 430" stroke="url(#accent)" stroke-width="4" stroke-linecap="round" stroke-dasharray="12 18" opacity="0.55"/>
  <path d="M90 235C270 145 460 130 640 170C820 210 980 260 1210 200C1360 160 1470 120 1550 95" stroke="#ffffff" stroke-opacity="0.08" stroke-width="3" stroke-linecap="round"/>

  <g filter="url(#glow)">
    <circle cx="800" cy="405" r="154" fill="#0D1F34" stroke="url(#accent)" stroke-width="4"/>
    <path d="M800 300L922 360V450C922 534 864 598 800 620C736 598 678 534 678 450V360L800 300Z" fill="#102744" stroke="url(#accent)" stroke-width="4"/>
    <path d="M800 346L882 384V450C882 507 842 551 800 568C758 551 718 507 718 450V384L800 346Z" fill="#17365D" opacity="0.95"/>
    <path d="M732 430H868M800 370V520" stroke="#76F2C4" stroke-width="5" stroke-linecap="round"/>
    <circle cx="800" cy="445" r="26" fill="#35C2FF" opacity="0.9"/>
    <path d="M800 409C822 409 840 427 840 449C840 471 822 489 800 489C778 489 760 471 760 449C760 427 778 409 800 409Z" stroke="#FFFFFF" stroke-opacity="0.85" stroke-width="4"/>
  </g>

  <g opacity="0.92">
    <rect x="170" y="650" width="320" height="82" rx="20" fill="#0F223B" stroke="#35C2FF" stroke-opacity="0.35"/>
    <text x="200" y="700" fill="#EAF7FF" font-family="Inter, Arial, sans-serif" font-size="28" font-weight="700">OIDC for AWS Access</text>

    <rect x="1110" y="170" width="320" height="82" rx="20" fill="#0F223B" stroke="#8A7CFF" stroke-opacity="0.35"/>
    <text x="1140" y="220" fill="#EAF7FF" font-family="Inter, Arial, sans-serif" font-size="28" font-weight="700">Security First</text>
  </g>

  <g opacity="0.3">
    <rect x="120" y="120" width="1360" height="660" rx="34" stroke="#FFFFFF" stroke-opacity="0.15"/>
    <path d="M220 130V780M380 130V780M540 130V780M700 130V780M860 130V780M1020 130V780M1180 130V780M1340 130V780" stroke="#FFFFFF" stroke-opacity="0.05"/>
    <path d="M120 220H1480M120 360H1480M120 500H1480M120 640H1480" stroke="#FFFFFF" stroke-opacity="0.05"/>
  </g>
</svg>
