<svg width="30" height="30" viewBox="0 0 63 63" fill="none" xmlns="http://www.w3.org/2000/svg">
<path d="M30.1667 1.5H28.6667V3V24.6597L13.3509 9.34398L12.2903 8.28332L11.2296 9.34398L9.344 11.2296L8.28334 12.2903L9.344 13.3509L24.6597 28.6667H3H1.5L1.5 30.1667L1.5 32.8333L1.5 34.3333H3H24.6597L9.34397 49.6491L8.28331 50.7097L9.34397 51.7704L11.2296 53.656L12.2902 54.7167L13.3509 53.656L28.6667 38.3403V60V61.5H30.1667H32.8333H34.3333V60V38.3403L49.6491 53.656L50.7097 54.7167L51.7704 53.656L53.656 51.7704L54.7167 50.7097L53.656 49.6491L38.3403 34.3333H60H61.5V32.8333V30.1667V28.6667H60H38.3403L53.656 13.3509L54.7167 12.2903L53.656 11.2296L51.7704 9.34398L50.7097 8.28332L49.6491 9.34398L34.3333 24.6597V3V1.5H32.8333H30.1667Z" fill="black" stroke="black" stroke-width="3"/>
</svg>
